PathFileType  4	(X/Y/Z) /Users/kristensteudel/Documents/NMBL_Research/BertecForceProcessing/anc_files/
DataRate	CameraRate	NumFrames	NumMarkers	Units	OrigDataRate	OrigDataStartFrame	OrigNumFrames
  200.0		  200.0		    4		     46		 mm	  200.0	      557	    636
Frame#	Time	r_knee			r_shank_antsup			r_ankle			r_calc			r_5meta			r_toe			L_knee			L_shank_antsup			L_ankle			L_calc			L_5meta			L_toe			r_sh2			r_sh3			r_sh4			L_sh2			L_sh3			r_thigh1			r_thigh2			r_thigh3			r_thigh4			r_thigh5			L_thigh1			L_thigh2			L_thigh3			L_thigh4			r.ASIS			r.PSIS			L.ASIS			L.PSIS			C7			R_Shoulder			L_Shoulder			Sternum			R_humerus			R_elbow_med			R_elbow_lat			R_forearm			R_wrist_radius			R_wrist_ulna			L_humerus			L_elbow_med			L_elbow_lat			L_forearm			L_wrist_radius			L_wrist_ulna			
		X1	Y1	Z1	X2	Y2	Z2	X3	Y3	Z3	X4	Y4	Z4	X5	Y5	Z5	X6	Y6	Z6	X7	Y7	Z7	X8	Y8	Z8	X9	Y9	Z9	X10	Y10	Z10	X11	Y11	Z11	X12	Y12	Z12	X13	Y13	Z13	X14	Y14	Z14	X15	Y15	Z15	X16	Y16	Z16	X17	Y17	Z17	X18	Y18	Z18	X19	Y19	Z19	X20	Y20	Z20	X21	Y21	Z21	X22	Y22	Z22	X23	Y23	Z23	X24	Y24	Z24	X25	Y25	Z25	X26	Y26	Z26	X27	Y27	Z27	X28	Y28	Z28	X29	Y29	Z29	X30	Y30	Z30	X31	Y31	Z31	X32	Y32	Z32	X33	Y33	Z33	X34	Y34	Z34	X35	Y35	Z35	X36	Y36	Z36	X37	Y37	Z37	X38	Y38	Z38	X39	Y39	Z39	X40	Y40	Z40	X41	Y41	Z41	X42	Y42	Z42	X43	Y43	Z43	X44	Y44	Z44	X45	Y45	Z45	X46	Y46	Z46	

557	2.78000	1018.406	505.891	-143.931	911.677	486.795	-149.500	637.728	658.098	-166.598	644.582	743.797	-221.387	512.858	593.673	-142.965	515.068	548.885	-208.167	972.362	493.406	-450.724	985.411	376.256	-436.357	851.784	99.519	-361.393	791.773	73.041	-310.389	986.506	41.114	-401.045	1031.291	50.826	-337.306	802.086	535.637	-157.830	933.885	548.517	-111.513	834.494	605.305	-129.757	899.922	400.162	-456.718	873.661	283.744	-421.616	1044.939	730.427	-135.135	1075.592	620.228	-149.435	1050.173	578.488	-119.622	949.266	694.949	-84.747	982.922	584.376	-113.198	977.820	732.851	-483.191	1011.671	600.940	-450.072	860.125	705.088	-486.773	899.802	577.037	-447.041	947.801	971.836	-172.113	732.466	1024.693	-206.881	892.996	991.705	-430.252	710.485	1031.798	-308.482	864.491	1508.700	-340.976	930.438	1478.960	-135.933	913.010	1435.836	-533.994	1007.927	1384.662	-336.686	815.729	1299.315	-34.679	664.943	1236.174	-59.656	692.416	1269.801	20.918	784.958	1105.247	23.359	827.744	994.999	18.490	782.359	989.195	41.962	820.058	1196.948	-614.034	683.017	1123.801	-579.364	734.784	1148.503	-655.501	851.740	1040.794	-612.169	942.274	1008.514	-538.450	900.797	957.633	-576.583
558	2.78500	1041.669	514.238	-146.560	936.525	489.709	-151.991	654.674	648.970	-165.156	654.839	736.258	-218.594	533.925	576.838	-141.872	537.992	533.524	-207.158	960.683	490.051	-448.136	965.871	373.263	-435.615	818.687	102.246	-359.154	758.568	76.326	-306.533	951.782	41.153	-400.118	996.549	50.758	-336.175	824.567	533.523	-158.970	955.977	552.299	-113.376	854.010	604.445	-130.199	880.842	403.069	-451.174	850.170	286.662	-420.494	1055.197	739.672	-137.996	1092.012	631.599	-151.465	1069.126	588.501	-121.165	962.153	699.219	-85.694	1001.688	591.162	-114.833	969.574	728.237	-484.781	1002.099	597.157	-447.967	852.034	703.415	-484.720	890.037	575.002	-444.446	946.248	968.761	-173.343	732.129	1024.254	-206.311	890.218	989.966	-430.872	708.201	1031.637	-308.209	864.212	1506.012	-342.769	925.933	1476.672	-135.260	918.568	1431.039	-534.849	1008.400	1381.641	-334.792	806.830	1300.520	-34.743	655.977	1238.126	-62.831	681.662	1273.109	17.637	767.774	1104.359	25.828	805.692	991.933	23.827	759.763	988.977	46.557	830.376	1190.074	-612.097	692.858	1113.442	-581.071	746.580	1139.653	-655.496	866.588	1035.036	-609.684	957.328	1006.306	-535.286	917.690	953.891	-573.568
559	2.79000	1064.094	524.769	-150.332	961.340	494.946	-154.381	669.153	638.814	-163.466	664.243	726.675	-216.233	554.714	557.732	-140.540	561.131	515.649	-207.275	949.123	488.114	-445.608	945.416	369.792	-435.040	785.120	105.322	-357.273	725.187	79.524	-305.521	916.850	41.012	-399.778	961.670	50.675	-335.963	846.957	532.614	-158.596	977.841	558.414	-116.447	872.776	605.001	-130.885	861.282	402.744	-451.770	825.708	289.283	-419.262	1064.697	751.090	-139.056	1107.244	645.318	-153.653	1087.295	600.787	-123.727	974.278	705.195	-87.222	1019.977	599.932	-116.219	961.750	724.813	-484.283	992.393	593.673	-445.891	844.204	701.445	-482.721	880.433	572.567	-444.341	945.226	966.117	-174.670	730.801	1023.303	-206.259	887.418	987.622	-432.278	706.014	1032.070	-307.890	863.838	1503.408	-343.840	922.019	1474.968	-135.043	923.197	1427.227	-535.370	1008.570	1379.567	-332.936	797.885	1301.918	-34.984	646.824	1241.422	-65.040	670.966	1276.970	14.509	750.796	1105.353	28.106	784.453	991.476	27.717	738.186	991.586	50.571	840.381	1184.571	-610.217	704.550	1104.560	-581.759	757.754	1132.206	-655.322	880.914	1031.866	-607.164	971.996	1006.443	-531.732	934.696	952.126	-569.566
560	2.79500	1085.504	536.977	-153.288	985.668	501.724	-157.258	684.177	626.399	-162.582	671.847	714.788	-213.069	575.815	537.031	-139.667	584.587	496.695	-206.590	937.635	486.767	-443.682	925.108	365.357	-434.827	752.290	107.487	-358.748	690.254	82.954	-308.300	881.701	41.037	-400.275	926.675	50.349	-336.421	869.177	532.386	-160.076	998.691	565.613	-119.648	891.060	606.205	-132.181	842.636	402.019	-452.041	801.093	291.002	-417.684	1072.749	764.290	-139.603	1121.516	660.866	-156.234	1104.260	615.002	-126.421	985.577	712.236	-89.218	1037.072	610.085	-119.498	953.529	720.655	-483.183	982.093	589.141	-444.506	835.209	699.199	-481.335	869.905	569.240	-444.086	944.514	964.056	-175.824	729.657	1022.453	-206.023	885.374	985.261	-434.217	704.590	1032.076	-307.157	863.618	1502.035	-344.981	918.050	1473.812	-134.503	928.279	1424.297	-535.265	1009.803	1378.527	-330.823	789.339	1303.890	-35.344	637.605	1245.168	-67.603	660.459	1281.714	11.285	734.053	1107.813	29.669	763.879	992.612	31.531	717.090	994.545	53.617	850.123	1180.100	-608.286	715.320	1097.301	-581.447	768.185	1125.896	-654.981	894.610	1031.099	-604.454	986.044	1009.155	-527.936	951.078	952.634	-565.642
